<svg width="187" height="38" viewBox="0 0 187 38" fill="none" xmlns="http://www.w3.org/2000/svg">
<path d="M55.504 28L49.432 10.912H53.248L57.64 24.136H56.68L61.312 10.912H63.928L68.368 24.136H67.528L71.992 10.912H75.568L69.496 28H66.496L62.224 15.856H62.824L58.504 28H55.504ZM86.7383 26.704C86.1463 27.168 85.4263 27.536 84.5783 27.808C83.7303 28.064 82.8743 28.192 82.0103 28.192C80.6503 28.192 79.4743 27.936 78.4823 27.424C77.5063 26.912 76.7543 26.184 76.2263 25.24C75.6983 24.296 75.4343 23.176 75.4343 21.88C75.4343 20.632 75.6903 19.528 76.2023 18.568C76.7143 17.608 77.4103 16.864 78.2903 16.336C79.1863 15.792 80.2263 15.52 81.4103 15.52C82.5463 15.52 83.5303 15.776 84.3623 16.288C85.1943 16.784 85.8343 17.496 86.2823 18.424C86.7303 19.336 86.9543 20.424 86.9543 21.688V22.216H78.6263L78.6743 20.416H84.7943L83.8583 21.16C83.8743 20.136 83.6743 19.368 83.2583 18.856C82.8583 18.328 82.2743 18.064 81.5063 18.064C80.6743 18.064 80.0263 18.368 79.5623 18.976C79.1143 19.568 78.8903 20.44 78.8903 21.592C78.8903 22.952 79.1543 23.936 79.6823 24.544C80.2263 25.152 81.0503 25.456 82.1543 25.456C82.7943 25.456 83.4263 25.352 84.0503 25.144C84.6743 24.936 85.2503 24.64 85.7783 24.256L86.7383 26.704ZM89.2296 28V10.336H92.8536V18.616L92.5656 18.184C92.8216 17.384 93.3176 16.744 94.0536 16.264C94.8056 15.768 95.6776 15.52 96.6696 15.52C97.7256 15.52 98.6536 15.784 99.4536 16.312C100.27 16.824 100.91 17.552 101.374 18.496C101.838 19.44 102.07 20.544 102.07 21.808C102.07 23.088 101.838 24.208 101.374 25.168C100.91 26.112 100.27 26.856 99.4536 27.4C98.6536 27.928 97.7256 28.192 96.6696 28.192C95.6776 28.192 94.8056 27.96 94.0536 27.496C93.3176 27.032 92.8216 26.384 92.5656 25.552L92.8296 25.024V28H89.2296ZM95.6376 25.432C96.5176 25.432 97.1976 25.12 97.6776 24.496C98.1736 23.872 98.4216 22.976 98.4216 21.808C98.4216 20.688 98.1816 19.824 97.7016 19.216C97.2216 18.608 96.5336 18.304 95.6376 18.304C94.7256 18.304 94.0296 18.616 93.5496 19.24C93.0696 19.864 92.8296 20.736 92.8296 21.856C92.8296 23.024 93.0696 23.912 93.5496 24.52C94.0296 25.128 94.7256 25.432 95.6376 25.432ZM109.17 28.192C108.114 28.192 107.178 27.936 106.362 27.424C105.546 26.912 104.914 26.184 104.466 25.24C104.018 24.296 103.794 23.192 103.794 21.928C103.794 20.664 104.018 19.552 104.466 18.592C104.93 17.616 105.562 16.864 106.362 16.336C107.178 15.792 108.114 15.52 109.17 15.52C110.146 15.52 111.01 15.76 111.762 16.24C112.514 16.72 113.026 17.368 113.298 18.184L113.01 18.376V15.832H116.586V28H113.01V25.504L113.298 25.552C113.026 26.384 112.514 27.032 111.762 27.496C111.01 27.96 110.146 28.192 109.17 28.192ZM110.226 25.432C111.106 25.432 111.786 25.128 112.266 24.52C112.762 23.912 113.01 23.032 113.01 21.88C113.01 20.728 112.762 19.848 112.266 19.24C111.786 18.616 111.106 18.304 110.226 18.304C109.346 18.304 108.65 18.624 108.138 19.264C107.642 19.904 107.394 20.792 107.394 21.928C107.394 23.064 107.634 23.936 108.114 24.544C108.61 25.136 109.314 25.432 110.226 25.432ZM125.247 33.376C123.327 33.376 121.647 33 120.207 32.248L120.759 29.56C121.479 29.928 122.207 30.2 122.943 30.376C123.679 30.552 124.407 30.64 125.127 30.64C126.167 30.64 126.943 30.4 127.455 29.92C127.967 29.44 128.223 28.704 128.223 27.712V24.904L128.511 25.048C128.319 25.496 128.023 25.92 127.623 26.32C127.223 26.72 126.735 27.048 126.159 27.304C125.599 27.544 124.991 27.664 124.335 27.664C123.279 27.664 122.343 27.416 121.527 26.92C120.711 26.408 120.071 25.696 119.607 24.784C119.143 23.872 118.911 22.808 118.911 21.592C118.911 20.376 119.143 19.32 119.607 18.424C120.071 17.512 120.711 16.8 121.527 16.288C122.343 15.776 123.279 15.52 124.335 15.52C125.327 15.52 126.199 15.768 126.951 16.264C127.719 16.744 128.239 17.384 128.511 18.184L128.223 18.4V15.832H131.823V27.424C131.823 29.376 131.263 30.856 130.143 31.864C129.039 32.872 127.407 33.376 125.247 33.376ZM125.391 24.904C126.271 24.904 126.959 24.616 127.455 24.04C127.967 23.448 128.223 22.632 128.223 21.592C128.223 20.584 127.975 19.784 127.479 19.192C126.983 18.6 126.287 18.304 125.391 18.304C124.495 18.304 123.791 18.6 123.279 19.192C122.767 19.768 122.511 20.568 122.511 21.592C122.511 22.616 122.767 23.424 123.279 24.016C123.807 24.608 124.511 24.904 125.391 24.904ZM145.426 26.704C144.834 27.168 144.114 27.536 143.266 27.808C142.418 28.064 141.562 28.192 140.698 28.192C139.338 28.192 138.162 27.936 137.17 27.424C136.194 26.912 135.442 26.184 134.914 25.24C134.386 24.296 134.122 23.176 134.122 21.88C134.122 20.632 134.378 19.528 134.89 18.568C135.402 17.608 136.098 16.864 136.978 16.336C137.874 15.792 138.914 15.52 140.098 15.52C141.234 15.52 142.218 15.776 143.05 16.288C143.882 16.784 144.522 17.496 144.97 18.424C145.418 19.336 145.642 20.424 145.642 21.688V22.216H137.314L137.362 20.416H143.482L142.546 21.16C142.562 20.136 142.362 19.368 141.946 18.856C141.546 18.328 140.962 18.064 140.194 18.064C139.362 18.064 138.714 18.368 138.25 18.976C137.802 19.568 137.578 20.44 137.578 21.592C137.578 22.952 137.842 23.936 138.37 24.544C138.914 25.152 139.738 25.456 140.842 25.456C141.482 25.456 142.114 25.352 142.738 25.144C143.362 24.936 143.938 24.64 144.466 24.256L145.426 26.704ZM147.917 28V19.312C147.917 18.736 147.901 18.16 147.869 17.584C147.853 16.992 147.805 16.408 147.725 15.832H151.133L151.397 18.208L151.133 18.184C151.549 17.32 152.125 16.664 152.861 16.216C153.613 15.752 154.477 15.52 155.453 15.52C158.317 15.52 159.749 17.224 159.749 20.632V28H156.125V20.8C156.125 19.936 155.965 19.312 155.645 18.928C155.341 18.544 154.853 18.352 154.181 18.352C153.381 18.352 152.741 18.608 152.261 19.12C151.781 19.632 151.541 20.32 151.541 21.184V28H147.917ZM168.372 28.192C167.06 28.192 165.924 27.936 164.964 27.424C164.004 26.912 163.268 26.192 162.756 25.264C162.26 24.32 162.012 23.208 162.012 21.928C162.012 20.648 162.284 19.528 162.828 18.568C163.372 17.608 164.132 16.864 165.108 16.336C166.084 15.792 167.228 15.52 168.54 15.52C169.404 15.52 170.252 15.656 171.084 15.928C171.916 16.2 172.588 16.568 173.1 17.032L172.14 19.552C171.66 19.168 171.132 18.872 170.556 18.664C169.98 18.44 169.42 18.328 168.876 18.328C167.9 18.328 167.132 18.624 166.572 19.216C166.012 19.808 165.732 20.688 165.732 21.856C165.732 23.04 166.004 23.928 166.548 24.52C167.108 25.112 167.884 25.408 168.876 25.408C169.42 25.408 169.98 25.304 170.556 25.096C171.132 24.888 171.66 24.584 172.14 24.184L173.1 26.704C172.572 27.168 171.884 27.536 171.036 27.808C170.188 28.064 169.3 28.192 168.372 28.192ZM174.751 33.472L173.911 30.688C174.663 30.544 175.279 30.36 175.759 30.136C176.255 29.928 176.663 29.664 176.983 29.344C177.303 29.024 177.567 28.632 177.775 28.168L178.711 26.08L179.671 24.664L183.247 15.832H186.823L181.231 28.624C180.735 29.744 180.167 30.632 179.527 31.288C178.887 31.944 178.167 32.44 177.367 32.776C176.567 33.112 175.695 33.344 174.751 33.472ZM178.807 28.912L173.119 15.832H176.887L180.391 24.664L178.807 28.912Z" fill="#333333"/>
<rect width="38" height="38" rx="12" fill="#FFA149"/>
<path d="M13.7593 26H16.4568L18.9433 17.4411H19.0455L21.5384 26H24.2359L27.9816 12.9091H24.9582L22.7913 22.0241H22.6762L20.292 12.9091H17.7032L15.3126 22.005H15.2039L13.037 12.9091H10.0136L13.7593 26Z" fill="white"/>
</svg>
